<svg width="50" height="50" viewBox="0 0 50 50" fill="none" xmlns="http://www.w3.org/2000/svg">
<g clip-path="url(#clip0_46_20)">
<path d="M25.866 9.5L43.1865 39.5C43.5714 40.1667 43.0903 41 42.3205 41H7.67949C6.90969 41 6.42857 40.1667 6.81347 39.5L24.134 9.5C24.5189 8.83333 25.4811 8.83333 25.866 9.5Z" stroke="#464646" stroke-width="3"/>
<path d="M26.3991 30.12H23.6191L23.1191 20.72H26.8991L26.3991 30.12ZM23.1191 33.5C23.1191 32.8467 23.2991 32.3933 23.6591 32.14C24.0325 31.8733 24.4791 31.74 24.9991 31.74C25.5058 31.74 25.9391 31.8733 26.2991 32.14C26.6591 32.3933 26.8391 32.8467 26.8391 33.5C26.8391 34.1133 26.6591 34.56 26.2991 34.84C25.9391 35.12 25.5058 35.26 24.9991 35.26C24.4791 35.26 24.0325 35.12 23.6591 34.84C23.2991 34.56 23.1191 34.1133 23.1191 33.5Z" fill="#464646"/>
</g>
<defs>
<clipPath id="clip0_46_20">
<rect width="50" height="50" fill="white"/>
</clipPath>
</defs>
</svg>
